<?xml version="1.0" encoding="utf-8"?>
<svg viewBox="0 0 24 24"
     xmlns="http://www.w3.org/2000/svg"
     fill="currentColor"
     class="icon glyph"
     id="icon-chart_with_headline_and_trend_card"
>
    <path d="M22,21a1,1,0,0,1-1,1H3a1,1,0,0,1-1-1V3A1,1,0,0,1,4,3V20H21A1,1,0,0,1,22,21ZM7,17a1,1,0,0,0,.71-.29l4.38-4.39L15.4,14.8a1,1,0,0,0,.83.17,1,1,0,0,0,.66-.52L20.12,8A2,2,0,1,0,18,6a2,2,0,0,0,.33,1.1l-2.69,5.38-3-2.28a1,1,0,0,0-1.31.09l-5,5a1,1,0,0,0,0,1.42A1,1,0,0,0,7,17Z"
          style="fill:#231f20"
    />
</svg>