<?xml version="1.0" ?>
<svg viewBox="0 0 32 32"
     version="1.1"
     xmlns="http://www.w3.org/2000/svg"
     id="icon-chart_plot"
>
    <defs id="defs2"/>
    <g id="layer1"
       transform="translate(-300,-292)"
    >
        <path d="m 313,298.01367 c -2.19729,0 -4,1.80271 -4,4 0,1.03393 0.3992,1.98087 1.05078,2.69336 l -4.05859,5.43359 c -0.31758,-0.082 -0.65018,-0.12695 -0.99219,-0.12695 -2.19729,0 -4,1.80271 -4,4 0,2.19729 1.80271,4 4,4 2.19729,0 4,-1.80271 4,-4 0,-1.13323 -0.48027,-2.16047 -1.24609,-2.89062 l 3.97461,-5.32032 c 0.40003,0.1355 0.82765,0.21094 1.27148,0.21094 0.30793,0 0.60793,-0.0366 0.89648,-0.10351 l 2.89454,4.77539 C 315.7146,311.40493 315,312.63128 315,314.01367 c 0,2.19729 1.80271,4 4,4 2.19729,0 4,-1.80271 4,-4 0,-1.13323 -0.48027,-2.16047 -1.24609,-2.89062 l 3.97461,-5.32032 c 0.40003,0.1355 0.82765,0.21094 1.27148,0.21094 2.19729,0 4,-1.80271 4,-4 0,-2.19729 -1.80271,-4 -4,-4 -2.19729,0 -4,1.80271 -4,4 0,1.03393 0.3992,1.98087 1.05078,2.69336 l -4.05859,5.43359 c -0.31758,-0.082 -0.65018,-0.12695 -0.99219,-0.12695 -0.092,0 -0.18291,0.005 -0.27344,0.0117 l -3.05468,-5.04297 c 0.81414,-0.7339 1.32812,-1.795 1.32812,-2.96873 0,-2.19729 -1.80271,-4 -4,-4 z m 0,2 c 1.11641,0 2,0.88359 2,2 0,1.11642 -0.88359,2 -2,2 -1.11641,0 -2,-0.88358 -2,-2 0,-1.11641 0.88359,-2 2,-2 z m 14,0 c 1.11641,0 2,0.88359 2,2 0,1.11642 -0.88359,2 -2,2 -1.11641,0 -2,-0.88358 -2,-2 0,-1.11641 0.88359,-2 2,-2 z m -22,12 c 1.11641,0 2,0.88359 2,2 0,1.11642 -0.88359,2 -2,2 -1.11641,0 -2,-0.88358 -2,-2 0,-1.11641 0.88359,-2 2,-2 z m 14,0 c 1.11641,0 2,0.88359 2,2 0,1.11642 -0.88359,2 -2,2 -1.11641,0 -2,-0.88358 -2,-2 0,-1.11641 0.88359,-2 2,-2 z"
              id="path453443"
              style="color:#000000;fill:#000000;fill-rule:evenodd;stroke-linecap:round;stroke-linejoin:round;stroke-miterlimit:4.1;-inkscape-stroke:none"
        />
    </g>
</svg>